<?xml version="1.0" encoding="iso-8859-1"?>
<!-- Uploaded to: SVG Repo, www.svgrepo.com, Generator: SVG Repo Mixer Tools -->
<svg fill="#000000" height="800px" width="800px" version="1.1" id="Layer_1" xmlns="http://www.w3.org/2000/svg" xmlns:xlink="http://www.w3.org/1999/xlink" 
	 viewBox="0 0 507.4 507.4" xml:space="preserve">
<g>
	<g>
		<path d="M290.5,282.774c9.3-9.5,14.6-22.3,14.6-35.8c0-28.4-23.1-51.4-51.4-51.4s-51.4,23-51.4,51.4c0,13.5,5.3,26.3,14.6,35.8
			l-11.8,53.3c-1.8,7.2,3.5,17.1,13.8,17.1h69.6c9.5,0,15.6-8.8,13.8-17.1L290.5,282.774z M261.1,280.574l9.8,44.4h-34.5l9.8-44.4
			c1.2-5.6-1-11.4-5.7-14.6c-6.3-4.3-10-11.5-10-19.1c0-12.8,10.4-23.2,23.2-23.2s23.2,10.4,23.2,23.2c0,7.6-3.8,14.7-10.1,19.1
			C262.1,269.274,259.8,274.974,261.1,280.574z"/>
	</g>
</g>
<g>
	<g>
		<path d="M456.5,292.074c13.2-41.4-14.3-78.7-50.2-86c-8.6-78.2-71.9-138.9-151.8-143.3c-85.2-4.7-159.2,58.1-169.5,141.7
			c-50.5,16.4-85,63.2-85,117.1c0,68,55.3,123.3,123.3,123.3h305.1c43.5,0,79-35.4,79-79C507.4,332.474,486.5,303.474,456.5,292.074
			z M428.4,416.674H123.3c-52.4,0-95.1-42.7-95.1-95.1c0-44.2,30.1-82.2,73.2-92.4c6.1-1.4,10.5-6.7,10.8-12.9
			c5.2-77.2,72.2-129.1,140.7-125.3c69.4,3.8,123.6,59.1,126.1,128.4c0.3,7.6,6.5,13.6,14.1,13.6h0.1c31.5,1.3,48.8,33.6,31.5,60.5
			c-5.5,7.9-1.9,19.9,9.9,22.1c25.5,3.1,44.6,24.7,44.6,50.4C479.2,393.874,456.4,416.674,428.4,416.674z"/>
	</g>
</g>
</svg>