<?xml version="1.0" encoding="iso-8859-1"?>
<!-- Uploaded to: SVG Repo, www.svgrepo.com, Generator: SVG Repo Mixer Tools -->
<svg version="1.1" id="Layer_1" xmlns="http://www.w3.org/2000/svg" xmlns:xlink="http://www.w3.org/1999/xlink" 
	 viewBox="0 0 512 512" xml:space="preserve">
<rect x="23.991" y="7.821" style="fill:#FDD042;" width="429.045" height="429.045"/>
<g>
	<rect x="23.991" y="7.821" style="fill:#F2C127;" width="35.754" height="429.045"/>
	<rect x="202.758" y="7.821" style="fill:#F2C127;" width="71.507" height="429.045"/>
</g>
<rect x="202.758" y="61.452" style="fill:#E1A527;" width="71.507" height="89.384"/>
<rect x="23.991" y="79.329" style="fill:#FDD042;" width="429.045" height="53.631"/>
<rect x="23.991" y="79.329" style="fill:#E1A527;" width="35.754" height="53.631"/>
<rect x="59.743" y="204.467" style="fill:#FFFFFF;" width="357.537" height="107.261"/>
<path style="fill:#74757B;" d="M142.251,156.97c-55.851,55.851-55.851,146.403,0,202.253s146.403,55.851,202.253,0
	s55.851-146.403,0-202.253S198.102,101.119,142.251,156.97z M319.223,333.942c-41.888,41.888-109.802,41.888-151.691,0
	c-41.888-41.888-41.888-109.802,0-151.691s109.802-41.888,151.691,0C361.111,224.14,361.111,292.054,319.223,333.942z"/>
<g>
	<path style="fill:#6AC8B7;" d="M483.554,498.273L483.554,498.273c-6.981,6.981-18.3,6.981-25.281,0l-75.845-75.845l25.281-25.281
		l75.845,75.845C490.535,479.973,490.535,491.292,483.554,498.273z"/>
</g>
<path style="fill:#2DB59F;" d="M392.636,412.219l-10.209,10.209l75.845,75.845c6.148,6.148,15.659,6.875,22.611,2.193
	L392.636,412.219z"/>
<path d="M202.201,284.354c4.628,0,8.38-3.752,8.38-8.38V240.22c0-4.628-3.752-8.38-8.38-8.38s-8.38,3.752-8.38,8.38v35.754
	C193.821,280.602,197.573,284.354,202.201,284.354z"/>
<path d="M237.955,284.354c4.628,0,8.38-3.752,8.38-8.38V240.22c0-4.628-3.752-8.38-8.38-8.38s-8.38,3.752-8.38,8.38v35.754
	C229.575,280.602,233.327,284.354,237.955,284.354z"/>
<path d="M273.709,284.354c4.628,0,8.38-3.752,8.38-8.38V240.22c0-4.628-3.752-8.38-8.38-8.38s-8.38,3.752-8.38,8.38v35.754
	C265.329,280.602,269.081,284.354,273.709,284.354z"/>
<path d="M325.148,339.868c21.842-21.841,33.871-50.882,33.87-81.771c0-30.889-12.029-59.929-33.87-81.771
	c-45.088-45.088-118.452-45.089-163.541,0c-21.842,21.841-33.871,50.882-33.871,81.771s12.029,59.929,33.871,81.771
	c22.544,22.544,52.157,33.816,81.771,33.816C272.991,373.685,302.603,362.412,325.148,339.868z M282.088,348.818v-28.152h38.305
	c-2.213,2.235-4.85,5.105-7.375,7.63C303.935,337.379,293.261,344.014,282.088,348.818z M320.393,196.645h-38.305v-29.269
	c11.173,4.803,21.847,11.998,30.929,21.08C315.543,190.982,318.18,193.294,320.393,196.645z M265.329,161.858v34.787h-54.748
	v-32.006c11.173-3.578,21.33-5.376,32.239-5.376C250.377,159.263,258.625,160.141,265.329,161.858z M193.821,172.226v24.42h-27.46
	c2.213-3.352,4.292-5.664,6.817-8.189C179.56,182.075,187.118,176.494,193.821,172.226z M155.431,213.405h175.894
	c7.134,13.408,10.934,29.243,10.934,45.251s-3.8,30.726-10.934,45.251H155.431c-7.134-14.525-10.934-29.243-10.934-45.251
	S148.297,226.813,155.431,213.405z M166.361,320.666h27.46v23.302c-6.704-4.269-14.261-9.292-20.643-15.672
	C170.654,325.771,168.576,322.901,166.361,320.666z M210.581,351.555v-30.889h54.748v33.67
	C247.452,358.533,228.458,357.612,210.581,351.555z"/>
<path d="M489.2,467.067l-28.343-28.063V204.467c0-4.628-3.752-8.38-8.38-8.38s-8.38,3.752-8.38,8.38v217.777l-30.743-31.022
	c-3.226-3.227-8.485-3.227-11.71,0l-6.646,6.716l-38.844-38.599c10.637-11.874,19.1-25.264,25.33-38.672h35.797
	c4.628,0,7.821-4.311,7.821-8.938V204.467c0-4.628-3.193-7.821-7.821-7.821h-35.797c-7.316-16.76-17.66-31.926-31.055-45.321
	c-59.029-59.028-155.076-58.889-214.103,0.14c-13.395,13.395-23.739,28.422-31.055,45.182H59.745c-4.628,0-8.938,3.193-8.938,7.821
	v107.261c0,4.628,4.311,8.938,8.938,8.938h45.526c7.316,15.642,17.381,31.367,30.776,44.763
	c16.896,16.896,37.663,28.668,57.775,35.891v27.725H31.812V141.898h108.378c4.628,0,8.38-3.752,8.38-8.38s-3.752-8.38-8.38-8.38
	H31.812V88.267h412.285v36.871h-98.323c-4.628,0-8.38,3.752-8.38,8.38s3.752,8.38,8.38,8.38h98.323v26.815
	c0,4.628,3.752,8.38,8.38,8.38s8.38-3.752,8.38-8.38V7.821c0-4.628-3.193-7.821-7.821-7.821H23.991
	c-4.628,0-8.938,3.193-8.938,7.821v429.045c0,4.628,4.311,8.938,8.938,8.938h369.403l58.952,58.674
	c10.122,10.122,26.871,9.982,36.993-0.14C499.576,494.101,499.436,477.303,489.2,467.067z M210.581,71.507V16.76h54.748v54.748
	H210.581z M444.097,71.507H282.088V16.76h162.009V71.507z M193.821,16.76v54.748H31.812V16.76H193.821z M408.344,213.405v90.502
	H387.82c9.161-30.167,9.161-61.452,0-90.502H408.344z M67.566,303.907v-90.502h31.369c-9.161,29.05-9.161,60.334,0,90.502H67.566z
	 M148.176,162.895c26.248-26.247,60.724-39.37,95.202-39.37c34.477,0,68.953,13.124,95.201,39.37
	c52.494,52.494,52.494,137.909,0,190.403s-137.908,52.493-190.403,0C95.682,300.805,95.682,215.389,148.176,162.895z
	 M210.581,405.973c11.173,2.296,21.425,3.447,32.239,3.447c7.526,0,15.805-0.563,22.509-1.676v21.3h-54.748V405.973z
	 M282.088,429.045v-24.77c22.346-5.953,43.789-17.077,61.97-33.367l39.018,38.879l-6.646,6.715
	c-3.273,3.273-3.238,8.858,0.035,12.129l0.168,0.412h-94.545V429.045z M477.628,492.348c-3.683,3.638-9.753,3.678-13.431,0
	l-69.92-69.92l13.431-13.431l69.92,69.92C481.33,482.621,481.33,488.645,477.628,492.348z"/>
</svg>