<svg height="40" viewBox="0 0 239 40" width="239" xmlns="http://www.w3.org/2000/svg"><path d="m226.546877 25.8395303c4.021886-2.3894325 6.672146-6.8297456 6.672146-11.7005871 0-7.47162422-6.01733-13.55185905-13.415974-13.55185905l-42.020572.04500978v28.40900197h-12.553865v-28.45401175h-15.488911s-9.132548 18.78082195-9.132548 18.78082195v-18.78082195h-10.091525s-9.132548 18.78082195-9.132548 18.78082195v-18.78082195h-10.360813v13.62035225c-2.460402-8.21135029-10.021781-14.2074364-18.9450983-14.2074364-8.2588152 0-15.3513609 5.1369863-18.3154677 12.4129159-.8427363-6.65949124-6.4861632-11.82583175-13.3036088-11.82583175h-19.3751844v9.28180039c-1.7745895-5.38551859-6.8096964-9.28180039-12.7301607-9.28180039h-28.3527471s8.9775627 9.0665362 8.9775627 9.0665362v29.67514675h10.3588752v-15.0058708l3.3341358 3.367906h5.6821734c5.9204643 0 10.9536339-3.8962818 12.7301607-9.2818003v20.9217221h10.3608125v-15.9510764l14.7256051 15.9510764h13.4876546l-12.4550605-13.4911938c2.1581797-1.2837573 3.9172706-3.1604696 5.0874147-5.3737769.2460402 10.81409 9.0240585 19.5342466 19.7878345 19.5342466 8.9233173 0 16.4846963-5.9960861 18.9489733-14.2074364v13.5381605h11.794433l7.427702-15.2759296v15.2759296h11.794433l12.82509-26.3757339v26.5538161h18.484015l4.428724-4.4735813v4.4735813h18.414272l4.231117-4.2739726v4.0958904h10.360812v-15.9491194l14.725605 15.9491194h13.487655l-12.455061-13.4911938zm-198.1941299-8.6144814h-9.0163092v-6.1722113h9.0163092c1.6854725 0 3.0551611 1.3835616 3.0551611 3.0861056 0 1.7025441-1.3696886 3.0861057-3.0551611 3.0861057zm32.1053451 0-9.0163092-.035225v-6.1369863h9.0163092c1.6854725 0 3.055161 1.3835616 3.055161 3.0861056 0 1.7025441-1.3716258 3.0861057-3.055161 3.0861057zm31.6190765 12.3091977c-5.2036541 0-9.4386459-4.2778865-9.4386459-9.5342466s4.2349918-9.5342466 9.4386459-9.5342466c5.2036542 0 9.4386463 4.2778865 9.4386463 9.5342466s-4.2349921 9.5342466-9.4386463 9.5342466zm108.3506963-.4911938h-12.284576v-3.9823874h8.31306v-9.9569472h-8.31306v-4.0039139h12.284576zm19.375184-11.8180039-9.016309-.035225v-6.1369863h9.016309c1.685473 0 3.055162 1.3835616 3.055162 3.0861056 0 1.7025441-1.369689 3.0861057-3.055162 3.0861057z" fill="#fff"/></svg>